IKResults
version=1
nRows=10
nColumns=40
inDegrees=yes

Units are S.I. units (second, meters, Newtons, ...)
Angles are in degrees.

endheader
time	pelvis_tilt	pelvis_list	pelvis_rotation	pelvis_tx	pelvis_ty	pelvis_tz	hip_flexion_r	hip_adduction_r	hip_rotation_r	knee_angle_r	knee_angle_r_beta	ankle_angle_r	subtalar_angle_r	mtp_angle_r	hip_flexion_l	hip_adduction_l	hip_rotation_l	knee_angle_l	knee_angle_l_beta	ankle_angle_l	subtalar_angle_l	mtp_angle_l	lumbar_extension	lumbar_bending	lumbar_rotation	arm_flex_r	arm_add_r	arm_rot_r	elbow_flex_r	pro_sup_r	wrist_flex_r	wrist_dev_r	arm_flex_l	arm_add_l	arm_rot_l	elbow_flex_l	pro_sup_l	wrist_flex_l	wrist_dev_l
      0.94000000	     16.01547061	     -0.39008041	      5.72127905	      0.21579927	      0.92065785	     -1.46405848	     12.41564700	     -3.54172356	    -24.63899459	    -23.45227340	     -0.40931939	     -9.40432160	      4.39448415	      5.01582042	    -28.82438780	      2.58007144	      2.09573888	    -21.10630461	     -0.36837451	     16.42824121	      4.36686012	     -8.18343369	    -20.73981351	      2.84465290	     -7.80328072	    -17.47063570	    -10.13961719	     -7.52772001	     10.49997141	     89.95437384	      0.00000000	      0.00000000	      6.15017479	     14.27349867	      6.86353352	     57.42675906	     89.95437384	      0.00000000	      0.00000000
      0.95000000	     15.87634820	     -0.73476987	      5.92897002	      0.23221043	      0.91926489	     -1.46307669	     12.70697520	     -2.95749309	    -24.23993360	    -23.80213612	     -0.41542564	     -8.97710989	      3.80275175	      4.90946078	    -28.96351383	      3.19264956	      1.63896066	    -22.52955814	     -0.39321497	     15.60619091	      4.50908627	     -8.07024407	    -20.33175160	      3.26477112	     -7.93456035	    -17.85393037	    -10.24551716	     -7.55863504	     10.35324220	     89.95437384	      0.00000000	      0.00000000	      5.87545095	     14.23418647	      7.22339540	     59.23174280	     89.95437384	      0.00000000	      0.00000000
      0.96000000	     15.80560202	     -1.05014785	      6.22387241	      0.24892298	      0.91833667	     -1.46228991	     12.74206830	     -2.37286785	    -23.77896251	    -24.28330586	     -0.42382364	     -8.01332475	      2.94901491	      4.83081284	    -29.01337267	      3.79236689	      1.08826013	    -24.21904658	     -0.42270210	     14.43690799	      4.87707596	     -7.90553562	    -19.93853452	      3.69469793	     -8.15149233	    -18.17684209	    -10.36841839	     -7.54067156	     10.22518086	     89.95437384	      0.00000000	      0.00000000	      5.58273991	     14.08406815	      7.58933146	     60.59036675	     89.95437384	      0.00000000	      0.00000000
      0.97000000	     15.82179619	     -1.33515333	      6.52683868	      0.26589652	      0.91791807	     -1.46135409	     12.48326714	     -1.78040333	    -23.21401185	    -24.72542623	     -0.43154010	     -6.81802400	      2.10075993	      4.77389460	    -28.99110439	      4.33692587	      0.44650710	    -26.15481353	     -0.45648761	     12.85632491	      5.49538942	     -7.69393104	    -19.57571907	      4.08681374	     -8.37787517	    -18.47842078	    -10.47841319	     -7.52820375	     10.18282144	     89.95437384	      0.00000000	      0.00000000	      5.26014787	     13.96656584	      7.85042339	     61.51440027	     89.95437384	      0.00000000	      0.00000000
      0.98000000	     15.96590072	     -1.57062542	      6.79316270	      0.28292173	      0.91812137	     -1.46036615	     11.86060141	     -1.20742279	    -22.44361013	    -24.97115931	     -0.43582895	     -5.69765587	      1.42089573	      4.72181073	    -28.89518428	      4.78580172	     -0.16691230	    -28.38920341	     -0.49548507	     10.76848713	      6.37527120	     -7.41742174	    -19.35144397	      4.42954835	     -8.55507316	    -18.72115053	    -10.56336540	     -7.51777889	     10.22705401	     89.95437384	      0.00000000	      0.00000000	      4.94239276	     13.77147659	      8.10622733	     62.06654661	     89.95437384	      0.00000000	      0.00000000
      0.99000000	     16.23162386	     -1.67548563	      6.92614915	      0.29986058	      0.91884532	     -1.45922090	     11.12185290	     -0.83013208	    -21.94593589	    -25.80458997	     -0.45037506	     -4.57964636	      0.54078593	      4.51058061	    -28.60961456	      5.06236986	     -0.47420773	    -31.06939620	     -0.54226326	      8.06501205	      7.27496097	     -7.03862301	    -19.27709776	      4.61540078	     -8.57530801	    -18.96989620	    -10.61772583	     -7.58998107	     10.52494690	     89.95437384	      0.00000000	      0.00000000	      4.74228452	     13.51429813	      8.31479445	     62.13490306	     89.95437384	      0.00000000	      0.00000000
      1.00000000	     16.61880749	     -1.88251441	      7.07858376	      0.31647464	      0.92015429	     -1.45792845	     10.25485845	     -0.27203299	    -21.18557669	    -27.25143877	     -0.47562733	     -2.64818448	     -0.18783261	      4.10831184	    -28.09152937	      5.48197267	     -0.65103326	    -34.13452742	     -0.59575989	      4.75248281	      8.33112117	     -6.58531223	    -19.37364435	      4.91954850	     -8.54152954	    -19.08123013	    -10.66708447	     -7.59934202	     10.76294723	     89.95437384	      0.00000000	      0.00000000	      4.56346531	     13.21476534	      8.52671832	     61.92799511	     89.95437384	      0.00000000	      0.00000000
      1.01000000	     17.02687265	     -2.11977337	      7.22913523	      0.33258522	      0.92201528	     -1.45731187	      9.31917183	      0.23030026	    -20.28522594	    -28.42915763	     -0.49618240	     -1.03969888	     -0.72408532	      3.78180579	    -27.25936036	      5.83213261	     -0.81966780	    -37.44277924	     -0.65349978	      0.49849214	      9.66152317	     -6.08255558	    -19.54756550	      5.36121598	     -8.47862582	    -19.05368642	    -10.79461802	     -7.58230327	     11.06401974	     89.95437384	      0.00000000	      0.00000000	      4.41522882	     12.75968261	      8.71428258	     61.39508054	     89.95437384	      0.00000000	      0.00000000
      1.02000000	     17.56893918	     -2.74874875	      7.41890739	      0.34829563	      0.92460828	     -1.45643769	      8.11084077	      1.39505903	    -19.10867218	    -29.08241514	     -0.50758390	     -0.11352926	     -1.82190124	      3.95373959	    -26.31522954	      6.60891321	     -0.95489561	    -40.72434156	     -0.71077385	     -3.55188844	     11.58739236	     -5.65129435	    -19.90204031	      6.21529230	     -8.29511486	    -18.81993025	    -10.95764728	     -7.75431283	     11.37861908	     89.95437384	      0.00000000	      0.00000000	      4.27292397	     12.20904072	      9.03552389	     60.61811288	     89.95437384	      0.00000000	      0.00000000
      1.03000000	     18.10507925	     -3.16977022	      7.55821436	      0.36374463	      0.92736290	     -1.45569139	      6.73163228	      2.27242990	    -18.27843279	    -29.44893403	     -0.51398086	      1.22252047	     -2.17354340	      3.93321693	    -25.29069251	      7.14588688	     -1.24254069	    -43.82786040	     -0.76494047	     -6.37919669	     12.07928064	     -5.42349519	    -20.31222479	      6.84792482	     -8.08449029	    -18.58758903	    -11.11942249	     -7.72377735	     11.87007638	     89.95437384	      0.00000000	      0.00000000	      4.11372175	     11.72290690	      9.20072889	     59.66391791	     89.95437384	      0.00000000	      0.00000000
